<svg width="17" height="17" viewBox="0 0 17 17" fill="none" xmlns="http://www.w3.org/2000/svg">
<path d="M8.65907 16.5326C8.61823 16.5342 8.57747 16.5281 8.53929 16.5147C8.50112 16.5013 8.46633 16.4809 8.43707 16.4548C8.4087 16.4291 8.38635 16.3984 8.37139 16.3646C8.35643 16.3307 8.34918 16.2944 8.35007 16.2579V14.5871C8.3487 14.5501 8.35573 14.5133 8.3707 14.479C8.38568 14.4446 8.40828 14.4135 8.43707 14.3875C8.46633 14.3614 8.50112 14.341 8.53929 14.3276C8.57747 14.3142 8.61823 14.3082 8.65907 14.3097H16.6921C16.7329 14.3082 16.7737 14.3142 16.8118 14.3276C16.85 14.341 16.8848 14.3614 16.9141 14.3875C16.9428 14.4135 16.9654 14.4447 16.9804 14.479C16.9953 14.5133 17.0024 14.5502 17.0011 14.5871V16.2579C17.0023 16.2949 16.9952 16.3317 16.9803 16.366C16.9653 16.4004 16.9428 16.4315 16.9141 16.4575C16.8848 16.4837 16.85 16.504 16.8118 16.5174C16.7737 16.5308 16.7329 16.5369 16.6921 16.5353L8.65907 16.5326ZM3.18407 16.4548L0.0940701 13.6753C0.048998 13.6377 0.0181919 13.588 0.0061403 13.5333C-0.00591127 13.4787 0.00142147 13.4219 0.0270701 13.3713C0.0480777 13.3173 0.0877838 13.2711 0.140139 13.2397C0.192493 13.2083 0.254626 13.1934 0.31707 13.1974H2.17007V1.2434C2.16923 1.2069 2.17652 1.17063 2.19147 1.1368C2.20643 1.10296 2.22875 1.07226 2.25707 1.04656C2.28633 1.02043 2.32112 1.00005 2.35929 0.986664C2.39747 0.973282 2.43823 0.967184 2.47907 0.968745H4.33307C4.37387 0.967502 4.41454 0.973747 4.45266 0.987111C4.49079 1.00048 4.52561 1.02069 4.55507 1.04656C4.58339 1.07226 4.60571 1.10296 4.62067 1.1368C4.63562 1.17063 4.64291 1.2069 4.64207 1.2434V13.1974H6.50007C6.54088 13.1961 6.58156 13.2023 6.61969 13.2156C6.65783 13.229 6.69264 13.2493 6.72207 13.2752C6.7506 13.3015 6.77302 13.3328 6.78797 13.3673C6.80293 13.4017 6.8101 13.4386 6.80907 13.4757C6.80448 13.5538 6.76892 13.6277 6.70907 13.6835L3.62907 16.4539C3.56825 16.5049 3.48859 16.5331 3.40607 16.5326C3.32445 16.531 3.24597 16.5035 3.18407 16.4548ZM8.65807 12.0859C8.61723 12.0875 8.57647 12.0814 8.53829 12.068C8.50012 12.0546 8.46533 12.0342 8.43607 12.0081C8.40733 11.9821 8.38476 11.951 8.36979 11.9166C8.35482 11.8823 8.34776 11.8455 8.34907 11.8085V10.1404C8.34776 10.1035 8.35482 10.0667 8.36979 10.0323C8.38476 9.99797 8.40733 9.96683 8.43607 9.94085C8.46533 9.91471 8.50012 9.89433 8.53829 9.88095C8.57647 9.86757 8.61723 9.86147 8.65807 9.86303H14.8371C14.8779 9.86147 14.9187 9.86757 14.9568 9.88095C14.995 9.89433 15.0298 9.91471 15.0591 9.94085C15.0878 9.96683 15.1104 9.99797 15.1254 10.0323C15.1403 10.0667 15.1474 10.1035 15.1461 10.1404V11.8085C15.1474 11.8455 15.1403 11.8823 15.1254 11.9166C15.1104 11.951 15.0878 11.9821 15.0591 12.0081C15.0298 12.0342 14.995 12.0546 14.9568 12.068C14.9187 12.0814 14.8779 12.0875 14.8371 12.0859H8.65807ZM8.65807 7.63923C8.61719 7.6404 8.57647 7.63404 8.53833 7.62051C8.50019 7.60698 8.46542 7.58657 8.43607 7.56049C8.40737 7.53448 8.38484 7.50333 8.36987 7.46899C8.3549 7.43466 8.34782 7.39786 8.34907 7.36091V5.69375C8.34776 5.65679 8.35482 5.61998 8.36979 5.58563C8.38476 5.55128 8.40733 5.52014 8.43607 5.49416C8.46533 5.46803 8.50012 5.44765 8.53829 5.43426C8.57647 5.42088 8.61723 5.41478 8.65807 5.41634H12.9831C13.0239 5.41478 13.0647 5.42088 13.1028 5.43426C13.141 5.44765 13.1758 5.46803 13.2051 5.49416C13.2339 5.52011 13.2565 5.55125 13.2714 5.5856C13.2864 5.61995 13.2934 5.65678 13.2921 5.69375V7.36091C13.2934 7.39788 13.2864 7.4347 13.2714 7.46906C13.2565 7.50341 13.2339 7.53455 13.2051 7.56049C13.1758 7.58663 13.141 7.60701 13.1028 7.62039C13.0647 7.63377 13.0239 7.63987 12.9831 7.63831L8.65807 7.63923ZM8.65807 3.19254C8.61723 3.1941 8.57647 3.18801 8.53829 3.17462C8.50012 3.16124 8.46533 3.14086 8.43607 3.11473C8.40728 3.08878 8.38468 3.05764 8.3697 3.02329C8.35473 2.98893 8.3477 2.95211 8.34907 2.91514V1.2434C8.34831 1.20683 8.35572 1.17051 8.37085 1.13666C8.38598 1.10281 8.40852 1.07215 8.43707 1.04656C8.46633 1.02043 8.50112 1.00005 8.53929 0.986664C8.57747 0.973282 8.61823 0.967184 8.65907 0.968745H11.1301C11.1709 0.967184 11.2117 0.973282 11.2498 0.986664C11.288 1.00005 11.3228 1.02043 11.3521 1.04656C11.3804 1.07223 11.4028 1.10292 11.4178 1.13677C11.4327 1.17061 11.44 1.2069 11.4391 1.2434V2.91423C11.4404 2.95119 11.4334 2.98802 11.4184 3.02237C11.4035 3.05673 11.3809 3.08786 11.3521 3.11381C11.3228 3.13994 11.288 3.16033 11.2498 3.17371C11.2117 3.18709 11.1709 3.19319 11.1301 3.19163L8.65807 3.19254Z" fill="#292727"/>
</svg>
