<svg width="38" height="31" viewBox="0 0 38 31" fill="none" xmlns="http://www.w3.org/2000/svg">
<path d="M34.8601 7.80852H33.5881L26.625 1.4484C26.1389 1.07451 25.5172 0.880336 24.8823 0.904089C24.2473 0.927841 23.6451 1.1678 23.1941 1.57674C22.7431 1.98568 22.476 2.53399 22.4454 3.11377C22.4148 3.69354 22.6228 4.26278 23.0286 4.70948L26.4215 7.80852H11.3134L14.7063 4.70948C14.9783 4.50236 15.2 4.24564 15.3572 3.95576C15.5143 3.66588 15.6035 3.34922 15.6189 3.02605C15.6344 2.70289 15.5758 2.38033 15.4469 2.07904C15.318 1.77775 15.1217 1.50435 14.8705 1.27636C14.6193 1.04837 14.3187 0.870795 13.988 0.755014C13.6573 0.639233 13.3038 0.587794 12.9501 0.603988C12.5964 0.620182 12.2503 0.703653 11.934 0.849058C11.6176 0.994463 11.338 1.1986 11.113 1.4484L4.12477 7.80852H0.0874023V9.35758H1.8515L3.35498 25.8196C3.40818 26.4021 3.69978 26.9448 4.17164 27.3397C4.6435 27.7345 5.26095 27.9525 5.90089 27.95H21.2906V26.4009H5.88886C5.67529 26.4015 5.46933 26.3285 5.31213 26.1965C5.15492 26.0644 5.05806 25.8831 5.0409 25.6886L3.55645 9.35849H33.9359L33.3165 16.1443L35.0124 16.2679L35.6399 9.35758H37.404V7.80852H34.8601ZM24.2254 3.64107C24.1407 3.57024 24.0726 3.48444 24.0252 3.38887C23.9778 3.2933 23.9522 3.18994 23.9498 3.08505C23.9474 2.98015 23.9684 2.87591 24.0114 2.77863C24.0544 2.68135 24.1186 2.59306 24.2 2.51909C24.2815 2.44512 24.3785 2.38702 24.4853 2.34831C24.592 2.30959 24.7063 2.29106 24.8211 2.29384C24.9359 2.29662 25.0489 2.32066 25.1533 2.36449C25.2576 2.40832 25.3512 2.47104 25.4282 2.54885L31.1866 7.80852H28.788L24.2254 3.64107ZM12.2837 2.54885C12.3598 2.46795 12.4533 2.40228 12.5585 2.35595C12.6637 2.30961 12.7782 2.28361 12.8948 2.27957C13.0115 2.27554 13.1278 2.29356 13.2365 2.3325C13.3452 2.37144 13.444 2.43046 13.5265 2.50588C13.6091 2.58129 13.6737 2.67146 13.7163 2.77074C13.759 2.87003 13.7787 2.97628 13.7743 3.08285C13.7699 3.18942 13.7414 3.29401 13.6907 3.39007C13.6399 3.48612 13.568 3.57157 13.4795 3.64107L8.91689 7.80852H6.52434L12.2837 2.54885ZM29.7713 16.3302C28.2617 16.3302 26.786 16.7391 25.5308 17.5051C24.2756 18.2712 23.2973 19.36 22.7196 20.6339C22.1419 21.9078 21.9907 23.3096 22.2852 24.662C22.5797 26.0144 23.3067 27.2566 24.3741 28.2316C25.4416 29.2066 26.8016 29.8706 28.2822 30.1396C29.7628 30.4086 31.2975 30.2705 32.6922 29.7429C34.0869 29.2152 35.2789 28.3216 36.1176 27.1751C36.9563 26.0287 37.404 24.6807 37.404 23.3019C37.404 21.4529 36.5998 19.6796 35.1684 18.3721C33.737 17.0647 31.7956 16.3302 29.7713 16.3302ZM29.7713 28.7245C28.5971 28.7245 27.4493 28.4065 26.473 27.8106C25.4967 27.2148 24.7358 26.3679 24.2864 25.377C23.8371 24.3862 23.7195 23.2959 23.9486 22.244C24.1776 21.1921 24.7431 20.2259 25.5733 19.4675C26.4036 18.7091 27.4614 18.1927 28.6131 17.9834C29.7647 17.7742 30.9584 17.8816 32.0432 18.292C33.128 18.7024 34.0552 19.3975 34.7075 20.2892C35.3599 21.181 35.708 22.2294 35.708 23.3019C35.708 24.74 35.0826 26.1193 33.9692 27.1363C32.8558 28.1532 31.3458 28.7245 29.7713 28.7245ZM30.6192 22.5273H34.0121V24.0764H30.6202V27.1754H28.9233V24.0773H25.5314V22.5273H28.9243V19.4292H30.6202L30.6192 22.5273ZM12.8089 12.4566C12.584 12.4566 12.3683 12.5382 12.2093 12.6835C12.0503 12.8287 11.961 13.0257 11.961 13.2311V22.5273C11.961 22.7328 12.0503 22.9298 12.2093 23.075C12.3683 23.2203 12.584 23.3019 12.8089 23.3019H16.2018C16.4267 23.3019 16.6424 23.2203 16.8014 23.075C16.9604 22.9298 17.0498 22.7328 17.0498 22.5273V13.2311C17.0498 13.0257 16.9604 12.8287 16.8014 12.6835C16.6424 12.5382 16.4267 12.4566 16.2018 12.4566H12.8089ZM15.3538 21.7528H13.6569V14.0066H15.3528L15.3538 21.7528ZM23.8355 16.3302V14.0066H22.1386V19.4292H20.4426V13.2311C20.4426 13.0257 20.532 12.8287 20.691 12.6835C20.85 12.5382 21.0657 12.4566 21.2906 12.4566H24.6835C24.9084 12.4566 25.1241 12.5382 25.2831 12.6835C25.4421 12.8287 25.5314 13.0257 25.5314 13.2311V16.3302H23.8355Z" fill="white"/>
</svg>
