<svg width="27" height="27" viewBox="0 0 27 27" fill="none" xmlns="http://www.w3.org/2000/svg">
<path d="M13.4984 0.77948C10.124 0.77948 6.8879 2.11996 4.50188 4.50598C2.11585 6.89201 0.775391 10.1282 0.775391 13.5025C0.775391 16.8769 2.11585 20.113 4.50188 22.499C6.8879 24.885 10.124 26.2255 13.4984 26.2255C13.6794 26.2255 13.8574 26.2255 14.0364 26.2135V16.9265H12.1174V13.7265H14.0364V11.8055C14.0364 9.19448 15.1174 7.6405 18.1934 7.6405H20.7544V10.8405H19.1544C17.9544 10.8405 17.8774 11.2875 17.8774 12.1215V13.7215H20.7774L20.4384 16.9215H17.8774V25.4495C20.6841 24.421 23.0392 22.4373 24.5297 19.8462C26.0203 17.2551 26.5512 14.2221 26.0293 11.2787C25.5075 8.33544 23.9662 5.66979 21.6756 3.74911C19.3851 1.82844 16.4916 0.77536 13.5024 0.774506L13.4984 0.77948Z" fill="white"/>
<path d="M18.1935 7.6395C15.1175 7.6395 14.0364 9.1935 14.0364 11.8045V13.7255H12.1174V16.9255H14.0364V26.2125C15.3467 26.1594 16.6407 25.9034 17.8724 25.4535V16.9255H20.4334L20.7724 13.7255H17.8724V12.1255C17.8724 11.2905 17.9524 10.8445 19.1494 10.8445H20.7495V7.6445L18.1935 7.6395Z" fill="#235EAE"/>
</svg>
