<svg width="24" height="23" viewBox="0 0 24 23" fill="none" xmlns="http://www.w3.org/2000/svg">
<path d="M23.1629 11.7512C23.1766 10.9681 23.096 10.1861 22.9229 9.42221H12.2229V13.6502H18.5009C18.3825 14.3922 18.1151 15.1025 17.7148 15.7384C17.3145 16.3743 16.7897 16.9226 16.1719 17.3502L16.1509 17.4922L19.5329 20.1122L19.7669 20.1352C20.8866 19.0531 21.767 17.7482 22.3513 16.3048C22.9355 14.8614 23.2107 13.3115 23.1589 11.7552" fill="#4285F4"/>
<path d="M12.2241 22.8902C14.999 22.9686 17.6985 21.9813 19.7681 20.1312L16.1731 17.3462C15.0069 18.1261 13.6264 18.5229 12.2241 18.4812C10.7835 18.4728 9.38208 18.011 8.21875 17.1613C7.05542 16.3115 6.18923 15.117 5.74307 13.7472L5.60907 13.7582L2.09507 16.4812L2.04907 16.6092C2.99565 18.4968 4.44861 20.084 6.2455 21.1932C8.0424 22.3024 10.1124 22.89 12.2241 22.8902Z" fill="#34A853"/>
<path d="M5.74496 13.7522C5.496 13.027 5.36764 12.2659 5.36496 11.4992C5.37009 10.7333 5.49458 9.97279 5.73396 9.24519L5.72796 9.0942L2.16596 6.32919L2.04996 6.38419C1.25092 7.97051 0.834717 9.722 0.834717 11.4982C0.834717 13.2744 1.25092 15.0259 2.04996 16.6122L5.74996 13.7512" fill="#FBBC05"/>
<path d="M12.2241 4.51121C13.857 4.48687 15.4358 5.09619 16.6291 6.21121L19.8441 3.07221C17.7826 1.13632 15.0518 0.0734151 12.2241 0.106205C10.1127 0.106147 8.04293 0.693262 6.24607 1.80193C4.44921 2.9106 2.99607 4.49713 2.04907 6.38421L5.73307 9.24521C6.18347 7.87607 7.05213 6.68278 8.21664 5.83348C9.38115 4.98419 10.7828 4.5217 12.2241 4.51121Z" fill="#EB4335"/>
</svg>
