<svg width="21" height="22" viewBox="0 0 21 22" fill="none" xmlns="http://www.w3.org/2000/svg">
<path d="M17.996 8.50022H3.00516C2.70184 8.50085 2.40256 8.56989 2.12961 8.70218C1.85666 8.83448 1.61706 9.02662 1.42864 9.26433C1.24148 9.50173 1.11067 9.77854 1.04609 10.0739C0.981508 10.3692 0.984836 10.6753 1.05582 10.9692L2.66315 17.5504C2.89545 18.3985 3.40081 19.1464 4.10102 19.6784C4.80147 20.2114 5.65906 20.5 6.54129 20.5H14.4578C15.34 20.5 16.1976 20.2114 16.8981 19.6784C17.5983 19.1464 18.1036 18.3985 18.3359 17.5504L19.9433 10.9702C20.0515 10.5266 20.004 10.0593 19.8088 9.64647C19.6136 9.23367 19.2825 8.90043 18.871 8.70254C18.5976 8.56989 18.2978 8.50073 17.9939 8.50022M6.48172 12.4995V16.4997M10.5006 12.4995V16.4997M14.5194 12.4995V16.4997M17.5338 8.50022C17.5335 7.58005 17.3513 6.66902 16.9977 5.81949C16.6441 4.96995 16.1261 4.19867 15.4735 3.54995C14.152 2.23625 12.364 1.49922 10.5006 1.5C8.63712 1.49922 6.84917 2.23625 5.5276 3.54995C4.87518 4.19875 4.3574 4.97008 4.00401 5.81961C3.65061 6.66913 3.46858 7.58012 3.46836 8.50022" stroke="#204F38" stroke-width="2" stroke-linecap="round" stroke-linejoin="round"/>
</svg>
