<svg width="18" height="19" viewBox="0 0 18 19" fill="none" xmlns="http://www.w3.org/2000/svg">
<path d="M18 2.80743H0V0.5H18V2.80743ZM11.2503 7.42229H0V5.11486H11.2503V7.42229ZM18 12.0869H0V9.77946H18V12.0869Z" fill="#204F38"/>
<path d="M1.12496 18.5C1.74625 18.5 2.24991 17.9835 2.24991 17.3463C2.24991 16.7091 1.74625 16.1926 1.12496 16.1926C0.503661 16.1926 0 16.7091 0 17.3463C0 17.9835 0.503661 18.5 1.12496 18.5Z" fill="#204F38"/>
<path d="M6.50256 17.3435C6.50283 17.572 6.43699 17.7955 6.31336 17.9857C6.18973 18.1758 6.01388 18.3241 5.80805 18.4117C5.60223 18.4994 5.37568 18.5224 5.15709 18.4779C4.9385 18.4335 4.73768 18.3235 4.58005 18.1619C4.42242 18.0004 4.31507 17.7945 4.27157 17.5703C4.22808 17.3462 4.2504 17.1138 4.33572 16.9027C4.42103 16.6915 4.5655 16.5111 4.75084 16.3842C4.93618 16.2573 5.15407 16.1896 5.37692 16.1898C5.67564 16.1898 5.96212 16.3115 6.17335 16.5281C6.38458 16.7447 6.50324 17.0385 6.50324 17.3449L6.50256 17.3435Z" fill="#204F38"/>
<path d="M9.6282 18.5C10.2495 18.5 10.7532 17.9835 10.7532 17.3463C10.7532 16.7091 10.2495 16.1926 9.6282 16.1926C9.0069 16.1926 8.50324 16.7091 8.50324 17.3463C8.50324 17.9835 9.0069 18.5 9.6282 18.5Z" fill="#204F38"/>
</svg>
