<svg width="19" height="18" viewBox="0 0 19 18" fill="none" xmlns="http://www.w3.org/2000/svg">
<path d="M2.67176 14.4921L3.28713 13.7283C3.40962 13.581 3.47365 13.3878 3.46545 13.1901V13.0645C3.47232 13.0063 3.46674 12.9471 3.44913 12.8915C3.43152 12.8359 3.40235 12.7855 3.36385 12.7439C3.32535 12.7024 3.27855 12.6709 3.22703 12.6519C3.17551 12.6329 3.12064 12.6269 3.06663 12.6343H1.06244C0.987847 12.6343 0.91631 12.6663 0.863565 12.7232C0.81082 12.7801 0.781189 12.8573 0.781189 12.9377V13.5444C0.781189 13.6249 0.81082 13.702 0.863565 13.7589C0.91631 13.8158 0.987847 13.8478 1.06244 13.8478H1.86513C1.72865 13.9959 1.59947 14.1516 1.47813 14.3143L1.28069 14.5801C1.21301 14.6522 1.16732 14.7448 1.14973 14.8456C1.13215 14.9464 1.14349 15.0507 1.18225 15.1443L1.21938 15.2178C1.25177 15.311 1.31122 15.3904 1.38887 15.4442C1.46651 15.498 1.5582 15.5232 1.65025 15.5163H1.819C2.18238 15.5163 2.38151 15.6091 2.38151 15.8609C2.38151 16.0429 2.23357 16.1727 1.87525 16.1727C1.6886 16.1711 1.50397 16.1309 1.33132 16.0544C1.10294 15.907 0.918439 15.9215 0.782876 16.1727L0.586563 16.5258C0.552205 16.5707 0.52715 16.6231 0.513081 16.6793C0.499012 16.7355 0.496253 16.7943 0.50499 16.8518C0.513728 16.9092 0.533758 16.964 0.563738 17.0125C0.593718 17.0609 0.632954 17.1018 0.678813 17.1326C1.07459 17.3764 1.52418 17.5001 1.97988 17.4905C2.19647 17.5156 2.41553 17.4908 2.6226 17.4179C2.82967 17.3449 3.02004 17.2254 3.18116 17.0673C3.34228 16.9092 3.47047 16.716 3.55729 16.5005C3.64411 16.285 3.68758 16.0521 3.68482 15.8172C3.68112 15.5049 3.57868 15.2033 3.39446 14.9624C3.21024 14.7214 2.95528 14.5555 2.67176 14.4921ZM17.9375 7.78061H6.68746C6.53827 7.78061 6.3952 7.84453 6.28971 7.95831C6.18422 8.07209 6.12496 8.22642 6.12496 8.38733V9.60076C6.12496 9.76167 6.18422 9.91599 6.28971 10.0298C6.3952 10.1436 6.53827 10.2075 6.68746 10.2075H17.9375C18.0867 10.2075 18.2298 10.1436 18.3352 10.0298C18.4407 9.91599 18.5 9.76167 18.5 9.60076V8.38733C18.5 8.22642 18.4407 8.07209 18.3352 7.95831C18.2298 7.84453 18.0867 7.78061 17.9375 7.78061ZM17.9375 1.71343H6.68746C6.53827 1.71343 6.3952 1.77736 6.28971 1.89114C6.18422 2.00492 6.12496 2.15924 6.12496 2.32015V3.53359C6.12496 3.6945 6.18422 3.84882 6.28971 3.9626C6.3952 4.07638 6.53827 4.1403 6.68746 4.1403H17.9375C18.0867 4.1403 18.2298 4.07638 18.3352 3.9626C18.4407 3.84882 18.5 3.6945 18.5 3.53359V2.32015C18.5 2.15924 18.4407 2.00492 18.3352 1.89114C18.2298 1.77736 18.0867 1.71343 17.9375 1.71343ZM17.9375 13.8478H6.68746C6.53827 13.8478 6.3952 13.9117 6.28971 14.0255C6.18422 14.1393 6.12496 14.2936 6.12496 14.4545V15.6679C6.12496 15.8288 6.18422 15.9832 6.28971 16.097C6.3952 16.2107 6.53827 16.2747 6.68746 16.2747H17.9375C18.0867 16.2747 18.2298 16.2107 18.3352 16.097C18.4407 15.9832 18.5 15.8288 18.5 15.6679V14.4545C18.5 14.2936 18.4407 14.1393 18.3352 14.0255C18.2298 13.9117 18.0867 13.8478 17.9375 13.8478ZM1.06244 5.35374H3.31245C3.38704 5.35374 3.45858 5.32178 3.51132 5.26489C3.56407 5.208 3.5937 5.13084 3.5937 5.05038V4.44366C3.5937 4.36321 3.56407 4.28605 3.51132 4.22916C3.45858 4.17227 3.38704 4.1403 3.31245 4.1403H2.74995V0.803359C2.74995 0.722903 2.72031 0.645743 2.66757 0.588852C2.61482 0.531961 2.54329 0.5 2.46869 0.5H1.62494C1.57285 0.500114 1.52181 0.515831 1.47751 0.545398C1.43322 0.574965 1.3974 0.617221 1.37407 0.667454L1.09281 1.27417C1.07135 1.32037 1.06118 1.37173 1.06328 1.42336C1.06538 1.47499 1.07967 1.52518 1.1048 1.56919C1.12993 1.61319 1.16507 1.64953 1.20687 1.67478C1.24868 1.70002 1.29578 1.71333 1.34369 1.71343H1.62494V4.1403H1.06244C0.987847 4.1403 0.91631 4.17227 0.863565 4.22916C0.81082 4.28605 0.781189 4.36321 0.781189 4.44366V5.05038C0.781189 5.13084 0.81082 5.208 0.863565 5.26489C0.91631 5.32178 0.987847 5.35374 1.06244 5.35374ZM0.925189 11.4209H3.31245C3.38704 11.4209 3.45858 11.389 3.51132 11.3321C3.56407 11.2752 3.5937 11.198 3.5937 11.1176V10.5108C3.5937 10.4304 3.56407 10.3532 3.51132 10.2963C3.45858 10.2394 3.38704 10.2075 3.31245 10.2075H1.95232C2.06819 9.81736 3.65164 9.49944 3.65164 8.06698C3.648 7.85504 3.60373 7.6462 3.5216 7.45362C3.43947 7.26104 3.32126 7.08889 3.17442 6.948C3.02758 6.80712 2.85528 6.70055 2.66838 6.635C2.48148 6.56946 2.28402 6.54637 2.08844 6.56717C1.81634 6.55478 1.54545 6.61286 1.29844 6.73658C1.05142 6.86029 0.835481 7.04603 0.668688 7.27825C0.63328 7.32082 0.607371 7.37157 0.592945 7.42661C0.57852 7.48165 0.575959 7.53952 0.585459 7.59579C0.594959 7.65206 0.616269 7.70524 0.647756 7.75126C0.679244 7.79728 0.720076 7.83492 0.767126 7.8613L1.06863 8.12219C1.26607 8.29511 1.45563 8.21563 1.63507 8.02936C1.72382 7.93557 1.84325 7.88325 1.96751 7.88375C2.00973 7.8796 2.0523 7.88518 2.09237 7.90011C2.13245 7.91505 2.16913 7.939 2.19998 7.97038C2.23083 8.00175 2.25514 8.03985 2.27131 8.08213C2.28747 8.12441 2.29513 8.16991 2.29376 8.21563C2.29376 8.701 0.501625 9.04379 0.501625 10.8366V10.9883C0.498988 11.048 0.508324 11.1076 0.528996 11.163C0.549668 11.2184 0.581187 11.2684 0.621401 11.3094C0.661615 11.3505 0.709576 11.3817 0.762005 11.401C0.814434 11.4202 0.870097 11.427 0.925189 11.4209Z" fill="#204F38"/>
</svg>
