<svg width="25" height="19" viewBox="0 0 25 19" fill="none" xmlns="http://www.w3.org/2000/svg">
<path d="M11.961 18.9999C11.7936 18.9996 11.63 18.9498 11.4908 18.8568C11.3517 18.7637 11.2432 18.6315 11.179 18.4769C11.1148 18.3222 11.0979 18.1521 11.1303 17.9878C11.1627 17.8236 11.2429 17.6726 11.361 17.5539L11.511 17.4039C11.5307 17.3842 11.5541 17.3685 11.5798 17.3579C11.6056 17.3472 11.6332 17.3417 11.661 17.3417C11.6889 17.3417 11.7165 17.3472 11.7422 17.3579C11.7679 17.3685 11.7913 17.3842 11.811 17.4039C11.8307 17.4236 11.8463 17.447 11.857 17.4727C11.8677 17.4984 11.8731 17.526 11.8731 17.5539C11.8731 17.5817 11.8677 17.6093 11.857 17.635C11.8463 17.6608 11.8307 17.6842 11.811 17.7039L11.661 17.8539C11.6216 17.8932 11.5903 17.94 11.569 17.9915C11.5476 18.043 11.5366 18.0981 11.5366 18.1539C11.5366 18.2096 11.5476 18.2648 11.569 18.3162C11.5903 18.3677 11.6216 18.4145 11.661 18.4539C11.7418 18.5311 11.8492 18.5742 11.961 18.5742C12.0728 18.5742 12.1802 18.5311 12.261 18.4539L12.411 18.3039C12.4307 18.2842 12.4541 18.2685 12.4798 18.2579C12.5056 18.2472 12.5332 18.2417 12.561 18.2417C12.5889 18.2417 12.6165 18.2472 12.6422 18.2579C12.6679 18.2685 12.6913 18.2842 12.711 18.3039C12.7307 18.3236 12.7463 18.347 12.757 18.3727C12.7677 18.3984 12.7731 18.426 12.7731 18.4539C12.7731 18.4817 12.7677 18.5093 12.757 18.535C12.7463 18.5608 12.7307 18.5842 12.711 18.6039L12.561 18.7539C12.4823 18.8326 12.3887 18.8949 12.2857 18.9371C12.1827 18.9793 12.0723 19.0007 11.961 18.9999Z" fill="#204F38"/>
<path d="M11.063 18.0999C10.8954 18.1001 10.7314 18.0506 10.592 17.9576C10.4525 17.8646 10.3438 17.7324 10.2795 17.5775C10.2153 17.4227 10.1984 17.2523 10.2311 17.0879C10.2637 16.9235 10.3445 16.7724 10.463 16.6539L10.613 16.5039C10.6327 16.4842 10.6561 16.4686 10.6818 16.4579C10.7076 16.4473 10.7351 16.4418 10.763 16.4418C10.7909 16.4418 10.8184 16.4473 10.8442 16.4579C10.8699 16.4686 10.8933 16.4842 10.913 16.5039C10.9327 16.5236 10.9483 16.547 10.959 16.5727C10.9697 16.5985 10.9751 16.6261 10.9751 16.6539C10.9751 16.6818 10.9697 16.7093 10.959 16.7351C10.9483 16.7608 10.9327 16.7842 10.913 16.8039L10.763 16.9539C10.7235 16.9932 10.6921 17.04 10.6707 17.0914C10.6492 17.1429 10.6382 17.1981 10.6382 17.2539C10.6382 17.3097 10.6492 17.3649 10.6707 17.4164C10.6921 17.4679 10.7235 17.5146 10.763 17.5539C10.8439 17.6309 10.9513 17.6739 11.063 17.6739C11.1747 17.6739 11.2821 17.6309 11.363 17.5539L11.513 17.4039C11.5327 17.3842 11.5561 17.3686 11.5818 17.3579C11.6076 17.3473 11.6351 17.3418 11.663 17.3418C11.6909 17.3418 11.7184 17.3473 11.7442 17.3579C11.7699 17.3686 11.7933 17.3842 11.813 17.4039C11.8327 17.4236 11.8483 17.447 11.859 17.4727C11.8697 17.4985 11.8751 17.526 11.8751 17.5539C11.8751 17.5818 11.8697 17.6093 11.859 17.6351C11.8483 17.6608 11.8327 17.6842 11.813 17.7039L11.663 17.8539C11.5843 17.9327 11.4907 17.9952 11.3877 18.0378C11.2848 18.0803 11.1744 18.1021 11.063 18.1019V18.0999Z" fill="#204F38"/>
<path d="M10.1636 17.2009C9.99596 17.2011 9.83204 17.1516 9.69256 17.0586C9.55309 16.9656 9.44435 16.8334 9.38011 16.6785C9.31586 16.5237 9.299 16.3533 9.33166 16.1889C9.36433 16.0245 9.44504 15.8734 9.56359 15.7549L9.71359 15.6049C9.75337 15.5651 9.80733 15.5428 9.86359 15.5428C9.91985 15.5428 9.97381 15.5651 10.0136 15.6049C10.0534 15.6447 10.0757 15.6987 10.0757 15.7549C10.0757 15.8112 10.0534 15.8651 10.0136 15.9049L9.86359 16.0549C9.78403 16.1345 9.73933 16.2424 9.73933 16.3549C9.73933 16.4674 9.78403 16.5754 9.86359 16.6549C9.94316 16.7345 10.0511 16.7792 10.1636 16.7792C10.2761 16.7792 10.384 16.7345 10.4636 16.6549L10.6136 16.5049C10.6333 16.4852 10.6567 16.4696 10.6824 16.4589C10.7081 16.4483 10.7357 16.4428 10.7636 16.4428C10.7914 16.4428 10.819 16.4483 10.8448 16.4589C10.8705 16.4696 10.8939 16.4852 10.9136 16.5049C10.9333 16.5246 10.9489 16.548 10.9596 16.5737C10.9702 16.5995 10.9757 16.6271 10.9757 16.6549C10.9757 16.6828 10.9702 16.7104 10.9596 16.7361C10.9489 16.7618 10.9333 16.7852 10.9136 16.8049L10.7636 16.9549C10.6848 17.0336 10.5912 17.0959 10.4882 17.1383C10.3853 17.1807 10.2749 17.2013 10.1636 17.2009Z" fill="#204F38"/>
<path d="M9.26398 16.3029C9.09656 16.3026 8.93296 16.2528 8.7938 16.1598C8.65464 16.0667 8.54614 15.9345 8.48197 15.7799C8.41781 15.6253 8.40086 15.4551 8.43324 15.2908C8.46563 15.1266 8.54592 14.9756 8.66398 14.8569L8.81398 14.7069C8.83367 14.6872 8.85706 14.6716 8.8828 14.6609C8.90853 14.6502 8.93612 14.6448 8.96398 14.6448C8.99183 14.6448 9.01942 14.6502 9.04516 14.6609C9.07089 14.6716 9.09428 14.6872 9.11398 14.7069C9.13367 14.7266 9.1493 14.75 9.15996 14.7757C9.17062 14.8014 9.17611 14.829 9.17611 14.8569C9.17611 14.8847 9.17062 14.9123 9.15996 14.9381C9.1493 14.9638 9.13367 14.9872 9.11398 15.0069L8.96398 15.1569C8.92458 15.1963 8.89333 15.2431 8.87201 15.2945C8.85069 15.346 8.83971 15.4012 8.83971 15.4569C8.83971 15.5126 8.85069 15.5678 8.87201 15.6192C8.89333 15.6707 8.92458 15.7175 8.96398 15.7569C9.00337 15.7963 9.05014 15.8275 9.10162 15.8489C9.15309 15.8702 9.20826 15.8811 9.26398 15.8811C9.31969 15.8811 9.37486 15.8702 9.42633 15.8489C9.47781 15.8275 9.52458 15.7963 9.56398 15.7569L9.71398 15.6069C9.75376 15.5671 9.80771 15.5448 9.86398 15.5448C9.92024 15.5448 9.97419 15.5671 10.014 15.6069C10.0538 15.6467 10.0761 15.7006 10.0761 15.7569C10.0761 15.8131 10.0538 15.8671 10.014 15.9069L9.86398 16.0569C9.78519 16.1357 9.69164 16.1981 9.58868 16.2407C9.48572 16.2832 9.37538 16.305 9.26398 16.3049V16.3029ZM5.96898 12.0729C5.91275 12.0728 5.85883 12.0505 5.81898 12.0109L1.77698 7.96689C1.75728 7.94719 1.74165 7.9238 1.73099 7.89807C1.72033 7.87233 1.71484 7.84474 1.71484 7.81688C1.71484 7.76062 1.73719 7.70667 1.77698 7.66689C1.81676 7.6271 1.87071 7.60475 1.92698 7.60475C1.98324 7.60475 2.03719 7.6271 2.07698 7.66689L5.97098 11.5609L9.56398 7.96689L5.66998 4.07289C5.63019 4.0331 5.60784 3.97915 5.60784 3.92289C5.60784 3.86662 5.63019 3.81267 5.66998 3.77289C5.70976 3.7331 5.76371 3.71075 5.81998 3.71075C5.87624 3.71075 5.93019 3.7331 5.96998 3.77289L10.014 7.81589C10.0337 7.83558 10.0493 7.85896 10.06 7.8847C10.0707 7.91044 10.0762 7.93802 10.0762 7.96589C10.0762 7.99375 10.0707 8.02134 10.06 8.04708C10.0493 8.07281 10.0337 8.0962 10.014 8.11589L6.11998 12.0159C6.07943 12.0539 6.02453 12.0744 5.96898 12.0729Z" fill="#204F38"/>
<path d="M4.17257 10.2769C4.11635 10.2768 4.06243 10.2545 4.02257 10.2149L0.12957 6.32088C0.109856 6.30119 0.0942162 6.27781 0.0835457 6.25207C0.0728752 6.22634 0.0673828 6.19875 0.0673828 6.17088C0.0673828 6.14302 0.0728752 6.11543 0.0835457 6.08969C0.0942162 6.06396 0.109856 6.04057 0.12957 6.02088L4.02357 2.12688C4.04326 2.10717 4.06664 2.09153 4.09238 2.08086C4.11812 2.07019 4.14571 2.0647 4.17357 2.0647C4.20143 2.0647 4.22902 2.07019 4.25476 2.08086C4.2805 2.09153 4.30388 2.10717 4.32357 2.12688L8.21757 6.02088C8.23728 6.04057 8.25292 6.06396 8.26359 6.08969C8.27426 6.11543 8.27976 6.14302 8.27976 6.17088C8.27976 6.19875 8.27426 6.22634 8.26359 6.25207C8.25292 6.27781 8.23728 6.30119 8.21757 6.32088L4.32257 10.2149C4.3029 10.2346 4.27951 10.2502 4.25377 10.2609C4.22802 10.2715 4.20043 10.277 4.17257 10.2769ZM0.57857 6.17088L4.17257 9.76488L7.76757 6.17088L4.17257 2.57688L0.57857 6.17088ZM7.16257 12.6709C7.10635 12.6708 7.05243 12.6485 7.01257 12.6089L6.11257 11.7089C6.09286 11.6892 6.07722 11.6658 6.06655 11.6401C6.05587 11.6143 6.05038 11.5867 6.05038 11.5589C6.05038 11.531 6.05587 11.5034 6.06655 11.4777C6.07722 11.452 6.09286 11.4286 6.11257 11.4089L9.40457 8.11188C9.42426 8.09217 9.44764 8.07653 9.47338 8.06586C9.49912 8.05519 9.52671 8.0497 9.55457 8.0497C9.58243 8.0497 9.61002 8.05519 9.63576 8.06586C9.6615 8.07653 9.68488 8.09217 9.70457 8.11188L10.6046 9.01188C10.6243 9.03157 10.6399 9.05496 10.6506 9.0807C10.6613 9.10643 10.6668 9.13402 10.6668 9.16188C10.6668 9.18975 10.6613 9.21734 10.6506 9.24307C10.6399 9.26881 10.6243 9.2922 10.6046 9.31188L7.30957 12.6069C7.26949 12.6461 7.21563 12.668 7.15957 12.6679L7.16257 12.6709ZM6.56257 11.5609L7.16257 12.1609L10.1626 9.16088L9.56257 8.56088L6.56757 11.5609H6.56257Z" fill="#204F38"/>
<path d="M11.9606 18.0649C11.9044 18.0648 11.8505 18.0425 11.8106 18.0029L7.01859 13.2099C6.95945 13.1508 6.91253 13.0807 6.88052 13.0035C6.84851 12.9262 6.83203 12.8435 6.83203 12.7599C6.83203 12.6763 6.84851 12.5935 6.88052 12.5163C6.91253 12.4391 6.95945 12.369 7.01859 12.3099L10.3136 9.01488C10.3333 8.99517 10.3567 8.97953 10.3824 8.96886C10.4081 8.95819 10.4357 8.9527 10.4636 8.9527C10.4915 8.9527 10.519 8.95819 10.5448 8.96886C10.5705 8.97953 10.5939 8.99517 10.6136 9.01488L11.1506 9.55188H12.2616C12.3178 9.55194 12.3717 9.57423 12.4116 9.61388L12.7116 9.91388C12.7313 9.93358 12.7469 9.95697 12.7576 9.9827C12.7682 10.0084 12.7737 10.036 12.7737 10.0639C12.7737 10.0917 12.7682 10.1193 12.7576 10.1451C12.7469 10.1708 12.7313 10.1942 12.7116 10.2139C12.6919 10.2336 12.6685 10.2492 12.6428 10.2599C12.617 10.2705 12.5894 10.276 12.5616 10.276C12.5337 10.276 12.5061 10.2705 12.4804 10.2599C12.4547 10.2492 12.4313 10.2336 12.4116 10.2139L12.1736 9.97588H11.0626C11.0347 9.97591 11.0072 9.97045 10.9814 9.95981C10.9557 9.94917 10.9323 9.93356 10.9126 9.91388L10.4636 9.46488L7.31859 12.6099C7.27902 12.6498 7.25682 12.7037 7.25682 12.7599C7.25682 12.8161 7.27902 12.87 7.31859 12.9099L12.1116 17.7019C12.1413 17.7315 12.1615 17.7693 12.1697 17.8105C12.1779 17.8516 12.1737 17.8943 12.1576 17.933C12.1416 17.9718 12.1144 18.0049 12.0795 18.0282C12.0446 18.0515 12.0035 18.0639 11.9616 18.0639L11.9606 18.0649Z" fill="#204F38"/>
<path d="M13.1585 19.0029C13.0471 19.0032 12.9367 18.9814 12.8337 18.9389C12.7307 18.8963 12.6372 18.8338 12.5585 18.7549L11.5055 17.6969C11.4657 17.6571 11.4434 17.6031 11.4434 17.5469C11.4434 17.4906 11.4657 17.4366 11.5055 17.3969C11.5453 17.3571 11.5992 17.3347 11.6555 17.3347C11.7118 17.3347 11.7657 17.3571 11.8055 17.3969L12.8605 18.4509C12.8999 18.4903 12.9467 18.5215 12.9981 18.5428C13.0496 18.5642 13.1048 18.5751 13.1605 18.5751C13.2162 18.5751 13.2714 18.5642 13.3228 18.5428C13.3743 18.5215 13.4211 18.4903 13.4605 18.4509C13.4999 18.4115 13.5311 18.3647 13.5525 18.3132C13.5738 18.2618 13.5848 18.2066 13.5848 18.1509C13.5848 18.0952 13.5738 18.04 13.5525 17.9885C13.5311 17.937 13.4999 17.8903 13.4605 17.8509L12.4035 16.8029C12.3838 16.7832 12.3682 16.7598 12.3575 16.734C12.3468 16.7083 12.3414 16.6807 12.3414 16.6529C12.3414 16.625 12.3468 16.5974 12.3575 16.5717C12.3682 16.546 12.3838 16.5226 12.4035 16.5029C12.4232 16.4832 12.4466 16.4675 12.4723 16.4569C12.498 16.4462 12.5256 16.4407 12.5535 16.4407C12.5813 16.4407 12.6089 16.4462 12.6347 16.4569C12.6604 16.4675 12.6838 16.4832 12.7035 16.5029L13.7585 17.5579C13.8775 17.6762 13.9587 17.8273 13.9916 17.9918C14.0246 18.1564 14.0078 18.3271 13.9435 18.4821C13.8792 18.6371 13.7702 18.7695 13.6304 18.8624C13.4906 18.9553 13.3263 19.0036 13.1585 19.0029Z" fill="#204F38"/>
<path d="M14.0571 18.1019C13.9457 18.1024 13.8352 18.0808 13.7322 18.0382C13.6292 17.9956 13.5357 17.933 13.4571 17.8539L12.1031 16.4999C12.0634 16.4601 12.041 16.4061 12.041 16.3499C12.041 16.2936 12.0634 16.2397 12.1031 16.1999C12.1429 16.1601 12.1969 16.1377 12.2531 16.1377C12.3094 16.1377 12.3634 16.1601 12.4031 16.1999L13.7571 17.5539C13.8379 17.6311 13.9454 17.6743 14.0571 17.6743C14.1689 17.6743 14.2764 17.6311 14.3571 17.5539C14.3966 17.5145 14.4279 17.4677 14.4492 17.4163C14.4705 17.3648 14.4815 17.3096 14.4815 17.2539C14.4815 17.1982 14.4705 17.143 14.4492 17.0915C14.4279 17.04 14.3966 16.9933 14.3571 16.9539L13.3021 15.8989C13.2624 15.8591 13.24 15.8051 13.24 15.7489C13.24 15.6926 13.2624 15.6387 13.3021 15.5989C13.3419 15.5591 13.3959 15.5367 13.4521 15.5367C13.5084 15.5367 13.5624 15.5591 13.6021 15.5989L14.6571 16.6539C14.7757 16.7724 14.8564 16.9234 14.8891 17.0878C14.9217 17.2522 14.9049 17.4227 14.8406 17.5775C14.7764 17.7323 14.6676 17.8646 14.5282 17.9576C14.3887 18.0506 14.2248 18.1001 14.0571 18.0999V18.1019Z" fill="#204F38"/>
<path d="M14.9566 17.2019C14.8452 17.2023 14.7349 17.1807 14.6319 17.1383C14.5289 17.0959 14.4353 17.0336 14.3566 16.9549L13.0026 15.6009C12.9829 15.5812 12.9672 15.5578 12.9566 15.532C12.9459 15.5063 12.9404 15.4787 12.9404 15.4509C12.9404 15.423 12.9459 15.3954 12.9566 15.3697C12.9672 15.3439 12.9829 15.3206 13.0026 15.3009C13.0223 15.2812 13.0456 15.2655 13.0714 15.2549C13.0971 15.2442 13.1247 15.2387 13.1526 15.2387C13.1804 15.2387 13.208 15.2442 13.2337 15.2549C13.2595 15.2655 13.2829 15.2812 13.3026 15.3009L14.6566 16.6549C14.7361 16.7344 14.844 16.7791 14.9566 16.7791C15.0691 16.7791 15.177 16.7344 15.2566 16.6549C15.3361 16.5753 15.3808 16.4674 15.3808 16.3549C15.3808 16.2423 15.3361 16.1344 15.2566 16.0549L14.2016 15.0009C14.1819 14.9812 14.1662 14.9578 14.1556 14.932C14.1449 14.9063 14.1394 14.8787 14.1394 14.8509C14.1394 14.823 14.1449 14.7954 14.1556 14.7697C14.1662 14.744 14.1819 14.7206 14.2016 14.7009C14.2213 14.6812 14.2446 14.6655 14.2704 14.6549C14.2961 14.6442 14.3237 14.6387 14.3516 14.6387C14.3794 14.6387 14.407 14.6442 14.4327 14.6549C14.4585 14.6655 14.4819 14.6812 14.5016 14.7009L15.5566 15.7549C15.6751 15.8734 15.7558 16.0244 15.7885 16.1888C15.8211 16.3532 15.8043 16.5237 15.74 16.6785C15.6758 16.8333 15.5671 16.9656 15.4276 17.0586C15.2881 17.1516 15.1242 17.2021 14.9566 17.2019Z" fill="#204F38"/>
<path d="M15.8548 16.3039C15.7434 16.3044 15.6329 16.2828 15.5299 16.2402C15.4269 16.1976 15.3334 16.135 15.2548 16.0559L13.9008 14.7019C13.861 14.6621 13.8387 14.6081 13.8387 14.5519C13.8387 14.4956 13.861 14.4417 13.9008 14.4019C13.9406 14.3621 13.9946 14.3397 14.0508 14.3397C14.1071 14.3397 14.161 14.3621 14.2008 14.4019L15.5548 15.7559C15.6355 15.8334 15.743 15.8766 15.8548 15.8766C15.9667 15.8766 16.0742 15.8334 16.1548 15.7559C16.1944 15.7166 16.2257 15.6698 16.2472 15.6183C16.2686 15.5668 16.2796 15.5116 16.2796 15.4559C16.2796 15.4001 16.2686 15.3449 16.2472 15.2934C16.2257 15.2419 16.1944 15.1952 16.1548 15.1559L12.7038 11.7089C12.6841 11.6892 12.6685 11.6658 12.6578 11.6401C12.6472 11.6143 12.6417 11.5867 12.6417 11.5589C12.6417 11.531 12.6472 11.5034 12.6578 11.4777C12.6685 11.452 12.6841 11.4286 12.7038 11.4089C12.7235 11.3892 12.7469 11.3736 12.7726 11.3629C12.7984 11.3522 12.826 11.3467 12.8538 11.3467C12.8817 11.3467 12.9093 11.3522 12.935 11.3629C12.9607 11.3736 12.9841 11.3892 13.0038 11.4089L16.4548 14.8599C16.5734 14.9784 16.6541 15.1294 16.6867 15.2938C16.7194 15.4583 16.7025 15.6287 16.6383 15.7835C16.5741 15.9383 16.4653 16.0706 16.3258 16.1636C16.1864 16.2566 16.0224 16.3061 15.8548 16.3059V16.3039ZM5.96081 10.6909C5.82464 10.6906 5.69217 10.6465 5.58294 10.5652C5.47372 10.4839 5.39353 10.3696 5.3542 10.2393C5.31488 10.1089 5.31851 9.96932 5.36455 9.84117C5.41059 9.71302 5.49661 9.60306 5.60991 9.52752C5.72322 9.45199 5.8578 9.41488 5.9938 9.42167C6.12981 9.42845 6.26002 9.47878 6.36524 9.56522C6.47046 9.65167 6.5451 9.76964 6.57816 9.90174C6.61121 10.0338 6.60092 10.1731 6.54881 10.2989C6.50062 10.415 6.41899 10.5142 6.31429 10.5838C6.20959 10.6534 6.08655 10.6914 5.96081 10.6909ZM5.96081 9.84387C5.91846 9.84147 5.87635 9.85184 5.83995 9.87362C5.80354 9.89541 5.77451 9.92762 5.75661 9.96609C5.73871 10.0046 5.73276 10.0475 5.73953 10.0894C5.74631 10.1313 5.76549 10.1702 5.79461 10.201C5.82372 10.2319 5.86142 10.2533 5.90284 10.2625C5.94426 10.2717 5.98748 10.2683 6.02693 10.2526C6.06637 10.237 6.10021 10.2099 6.12408 10.1748C6.14795 10.1397 6.16075 10.0983 6.16081 10.0559C6.1609 10.0017 6.14022 9.94949 6.10302 9.91006C6.06582 9.87063 6.01493 9.84694 5.96081 9.84387ZM18.8508 12.3729C18.7946 12.3728 18.7407 12.3505 18.7008 12.3109L14.8068 8.41688C14.7871 8.39719 14.7715 8.3738 14.7608 8.34806C14.7501 8.32233 14.7446 8.29474 14.7446 8.26687C14.7446 8.23901 14.7501 8.21142 14.7608 8.18568C14.7715 8.15995 14.7871 8.13656 14.8068 8.11687L18.8508 4.07287C18.8705 4.05318 18.8939 4.03755 18.9196 4.02689C18.9454 4.01623 18.973 4.01074 19.0008 4.01074C19.0287 4.01074 19.0563 4.01623 19.082 4.02689C19.1077 4.03755 19.1311 4.05318 19.1508 4.07287C19.1705 4.09257 19.1861 4.11596 19.1968 4.1417C19.2075 4.16743 19.2129 4.19502 19.2129 4.22288C19.2129 4.25073 19.2075 4.27832 19.1968 4.30405C19.1861 4.32979 19.1705 4.35318 19.1508 4.37288L15.2568 8.26687L18.8508 11.8609L22.7448 7.96688C22.7645 7.94718 22.7879 7.93155 22.8136 7.92089C22.8394 7.91023 22.867 7.90474 22.8948 7.90474C22.9227 7.90474 22.9503 7.91023 22.976 7.92089C23.0017 7.93155 23.0251 7.94718 23.0448 7.96688C23.0645 7.98657 23.0801 8.00996 23.0908 8.0357C23.1015 8.06143 23.1069 8.08902 23.1069 8.11687C23.1069 8.14473 23.1015 8.17232 23.0908 8.19805C23.0801 8.22379 23.0645 8.24718 23.0448 8.26687L18.9998 12.3089C18.9804 12.3291 18.9571 12.3451 18.9313 12.3561C18.9055 12.3671 18.8788 12.3728 18.8508 12.3729Z" fill="#204F38"/>
<path d="M20.6476 10.5759C20.5913 10.5758 20.5374 10.5535 20.4976 10.5139L16.6036 6.6199C16.5838 6.60021 16.5682 6.57682 16.5575 6.55109C16.5469 6.52535 16.5414 6.49776 16.5414 6.4699C16.5414 6.44203 16.5469 6.41444 16.5575 6.38871C16.5682 6.36297 16.5838 6.33958 16.6036 6.31989L20.4976 2.4259C20.5172 2.40618 20.5406 2.39054 20.5664 2.37987C20.5921 2.3692 20.6197 2.36371 20.6476 2.36371C20.6754 2.36371 20.703 2.3692 20.7287 2.37987C20.7545 2.39054 20.7779 2.40618 20.7976 2.4259L24.6916 6.31989C24.7113 6.33958 24.7269 6.36297 24.7376 6.38871C24.7483 6.41444 24.7537 6.44203 24.7537 6.4699C24.7537 6.49776 24.7483 6.52535 24.7376 6.55109C24.7269 6.57682 24.7113 6.60021 24.6916 6.6199L20.7976 10.5139C20.7779 10.5336 20.7545 10.5493 20.7288 10.5599C20.703 10.5705 20.6754 10.576 20.6476 10.5759ZM17.0536 6.4699L20.6476 10.0639L24.2416 6.4699L20.6476 2.8759L17.0536 6.4699ZM17.6586 12.9699C17.6023 12.9698 17.5484 12.9475 17.5086 12.9079L14.2136 9.6089C14.1938 9.58921 14.1782 9.56582 14.1675 9.54008C14.1569 9.51435 14.1514 9.48676 14.1514 9.45889C14.1514 9.43103 14.1569 9.40344 14.1675 9.37771C14.1782 9.35197 14.1938 9.32858 14.2136 9.3089L15.1136 8.4089C15.1332 8.38918 15.1566 8.37354 15.1824 8.36287C15.2081 8.3522 15.2357 8.34671 15.2636 8.34671C15.2914 8.34671 15.319 8.3522 15.3447 8.36287C15.3705 8.37354 15.3939 8.38918 15.4136 8.4089L18.7086 11.7039C18.7283 11.7236 18.7439 11.747 18.7546 11.7727C18.7652 11.7984 18.7707 11.826 18.7707 11.8539C18.7707 11.8818 18.7652 11.9093 18.7546 11.9351C18.7439 11.9608 18.7283 11.9842 18.7086 12.0039L17.8086 12.9039C17.7888 12.9236 17.7655 12.9392 17.7397 12.9498C17.714 12.9605 17.6864 12.9659 17.6586 12.9659V12.9699ZM14.6586 9.4629L17.6586 12.4629L18.2586 11.8629L15.2586 8.8629L14.6586 9.4629Z" fill="#204F38"/>
<path d="M16.1541 15.0729C16.1124 15.0727 16.0716 15.0603 16.0369 15.037C16.0022 15.0138 15.9752 14.9808 15.9591 14.9422C15.9431 14.9037 15.9388 14.8613 15.9468 14.8203C15.9548 14.7793 15.9748 14.7416 16.0041 14.7119L17.5041 13.2119C17.5239 13.1923 17.5397 13.1689 17.5504 13.1432C17.5612 13.1174 17.5667 13.0898 17.5667 13.0619C17.5667 13.034 17.5612 13.0064 17.5504 12.9806C17.5397 12.9549 17.5239 12.9315 17.5041 12.9119L14.3591 9.7669L13.9101 10.2159C13.8904 10.2356 13.867 10.2512 13.8413 10.2618C13.8155 10.2725 13.788 10.2779 13.7601 10.2779H12.6481L10.6131 12.3129C10.5934 12.3326 10.57 12.3482 10.5443 12.3589C10.5186 12.3695 10.491 12.375 10.4631 12.375C10.4353 12.375 10.4077 12.3695 10.3819 12.3589C10.3562 12.3482 10.3328 12.3326 10.3131 12.3129C10.2934 12.2932 10.2778 12.2698 10.2671 12.2441C10.2565 12.2183 10.251 12.1908 10.251 12.1629C10.251 12.135 10.2565 12.1075 10.2671 12.0817C10.2778 12.056 10.2934 12.0326 10.3131 12.0129L12.4131 9.9129C12.4328 9.89322 12.4562 9.87761 12.4819 9.86698C12.5077 9.85634 12.5353 9.85088 12.5631 9.8509H13.6741L14.2111 9.3139C14.2516 9.2755 14.3053 9.25409 14.3611 9.25409C14.4169 9.25409 14.4706 9.2755 14.5111 9.3139L17.8061 12.6139C17.8653 12.673 17.9122 12.7431 17.9442 12.8203C17.9762 12.8975 17.9927 12.9803 17.9927 13.0639C17.9927 13.1475 17.9762 13.2303 17.9442 13.3075C17.9122 13.3847 17.8653 13.4548 17.8061 13.5139L16.3061 15.0139C16.2661 15.0533 16.2122 15.0752 16.1561 15.0749L16.1541 15.0729ZM18.8591 10.9939C18.7122 10.9937 18.5699 10.9425 18.4564 10.8491C18.343 10.7557 18.2655 10.6259 18.2371 10.4817C18.2087 10.3376 18.2311 10.188 18.3006 10.0586C18.3701 9.92911 18.4823 9.82776 18.6182 9.77178C18.754 9.71581 18.9051 9.70868 19.0456 9.7516C19.1861 9.79453 19.3074 9.88486 19.3888 10.0072C19.4702 10.1295 19.5066 10.2763 19.4919 10.4225C19.4772 10.5687 19.4122 10.7052 19.3081 10.8089C19.1889 10.9276 19.0274 10.9942 18.8591 10.9939ZM18.7091 10.5089C18.7388 10.5385 18.7765 10.5587 18.8177 10.5668C18.8588 10.575 18.9014 10.5708 18.9401 10.5547C18.9788 10.5387 19.0119 10.5115 19.0352 10.4767C19.0585 10.4418 19.0709 10.4008 19.0709 10.3589C19.0709 10.317 19.0585 10.276 19.0352 10.2411C19.0119 10.2063 18.9788 10.1791 18.9401 10.1631C18.9014 10.147 18.8588 10.1428 18.8177 10.151C18.7765 10.1591 18.7388 10.1793 18.7091 10.2089C18.6708 10.2484 18.6494 10.3013 18.6494 10.3564C18.6494 10.4115 18.6708 10.4644 18.7091 10.5039V10.5089Z" fill="#204F38"/>
<path d="M11.3552 12.7389C11.1605 12.7394 10.9676 12.7013 10.7877 12.6268C10.6079 12.5523 10.4445 12.4429 10.3072 12.3049C10.2875 12.2852 10.2719 12.2618 10.2612 12.2361C10.2505 12.2103 10.2451 12.1828 10.2451 12.1549C10.2451 12.127 10.2505 12.0995 10.2612 12.0737C10.2719 12.048 10.2875 12.0246 10.3072 12.0049C10.3269 11.9852 10.3503 11.9696 10.376 11.9589C10.4018 11.9482 10.4293 11.9428 10.4572 11.9428C10.4851 11.9428 10.5126 11.9482 10.5384 11.9589C10.5641 11.9696 10.5875 11.9852 10.6072 12.0049C10.809 12.1983 11.0777 12.3062 11.3572 12.3062C11.6367 12.3062 11.9054 12.1983 12.1072 12.0049L13.0072 11.1049C13.0269 11.0852 13.0503 11.0696 13.076 11.0589C13.1018 11.0482 13.1293 11.0428 13.1572 11.0428C13.1851 11.0428 13.2126 11.0482 13.2384 11.0589C13.2641 11.0696 13.2875 11.0852 13.3072 11.1049C13.3269 11.1246 13.3425 11.148 13.3532 11.1737C13.3638 11.1995 13.3693 11.227 13.3693 11.2549C13.3693 11.2828 13.3638 11.3103 13.3532 11.3361C13.3425 11.3618 13.3269 11.3852 13.3072 11.4049L12.4072 12.3049C12.2699 12.4429 12.1065 12.5523 11.9266 12.6268C11.7468 12.7013 11.5539 12.7394 11.3592 12.7389H11.3552ZM17.2812 5.98989C17.225 5.98989 17.171 5.96756 17.1313 5.9278C17.0915 5.88804 17.0692 5.83412 17.0692 5.77789V3.17789L12.4092 0.487894L7.7492 3.17789V5.63789C7.7492 5.69412 7.72686 5.74804 7.6871 5.7878C7.64734 5.82756 7.59342 5.84989 7.5372 5.84989C7.48097 5.84989 7.42705 5.82756 7.38729 5.7878C7.34753 5.74804 7.3252 5.69412 7.3252 5.63789V3.05989C7.3252 3.02276 7.335 2.98629 7.35361 2.95415C7.37222 2.92202 7.39899 2.89537 7.43119 2.87689L12.3032 0.0638943C12.3355 0.0453847 12.372 0.0356445 12.4092 0.0356445C12.4464 0.0356445 12.4829 0.0453847 12.5152 0.0638943L17.3872 2.87689C17.4194 2.89537 17.4462 2.92202 17.4648 2.95415C17.4834 2.98629 17.4932 3.02276 17.4932 3.05989V5.77789C17.4932 5.80573 17.4877 5.8333 17.4771 5.85902C17.4664 5.88474 17.4508 5.90811 17.4311 5.9278C17.4114 5.94749 17.388 5.9631 17.3623 5.97376C17.3366 5.98441 17.309 5.98989 17.2812 5.98989Z" fill="#204F38"/>
<path d="M10.0902 4.77091C10.053 4.77117 10.0164 4.76151 9.98416 4.74291L7.44516 3.27691C7.42023 3.26343 7.39825 3.24509 7.38053 3.22297C7.36281 3.20084 7.3497 3.1754 7.34199 3.14812C7.33427 3.12085 7.33211 3.09231 7.33561 3.06418C7.33912 3.03605 7.34823 3.00892 7.36241 2.98438C7.37659 2.95983 7.39554 2.93838 7.41815 2.92129C7.44077 2.9042 7.46658 2.89182 7.49406 2.88487C7.52154 2.87793 7.55013 2.87657 7.57815 2.88087C7.60616 2.88517 7.63303 2.89504 7.65716 2.90991L10.1962 4.37591C10.2389 4.39811 10.2729 4.43423 10.2924 4.47831C10.3119 4.52238 10.3158 4.57179 10.3034 4.61838C10.2911 4.66497 10.2632 4.70596 10.2245 4.73459C10.1857 4.76323 10.1383 4.7778 10.0902 4.77591V4.77091ZM14.7282 4.71891C14.68 4.7208 14.6326 4.70623 14.5939 4.6776C14.5551 4.64896 14.5272 4.60797 14.5149 4.56138C14.5026 4.51479 14.5065 4.46538 14.5259 4.4213C14.5454 4.37723 14.5794 4.34111 14.6222 4.31891L17.1302 2.87091C17.1787 2.84466 17.2356 2.83838 17.2887 2.8534C17.3418 2.86843 17.387 2.90357 17.4146 2.95136C17.4422 2.99915 17.45 3.05582 17.4365 3.10933C17.423 3.16284 17.3892 3.20896 17.3422 3.23791L14.8332 4.69191C14.8012 4.71008 14.7649 4.7194 14.7282 4.71891ZM12.4082 8.75691C12.3519 8.75691 12.298 8.73457 12.2583 8.69481C12.2185 8.65506 12.1962 8.60113 12.1962 8.54491V3.20991C12.1962 3.18207 12.2016 3.1545 12.2123 3.12878C12.223 3.10306 12.2386 3.07969 12.2583 3.06C12.2779 3.04032 12.3013 3.0247 12.327 3.01405C12.3528 3.00339 12.3803 2.99791 12.4082 2.99791C12.436 2.99791 12.4636 3.00339 12.4893 3.01405C12.515 3.0247 12.5384 3.04032 12.5581 3.06C12.5778 3.07969 12.5934 3.10306 12.604 3.12878C12.6147 3.1545 12.6202 3.18207 12.6202 3.20991V8.54491C12.6202 8.60113 12.5978 8.65506 12.5581 8.69481C12.5183 8.73457 12.4644 8.75691 12.4082 8.75691Z" fill="#204F38"/>
<path d="M12.7753 5.97289H12.0753C11.8036 5.97289 11.543 5.86495 11.3509 5.67282C11.1587 5.48069 11.0508 5.2201 11.0508 4.94839C11.0508 4.67667 11.1587 4.41609 11.3509 4.22396C11.543 4.03183 11.8036 3.92389 12.0753 3.92389H13.5673C13.5951 3.92389 13.6227 3.92937 13.6484 3.94003C13.6741 3.95068 13.6975 3.96629 13.7172 3.98598C13.7369 4.00567 13.7525 4.02904 13.7631 4.05476C13.7738 4.08048 13.7793 4.10805 13.7793 4.13589C13.7793 4.16373 13.7738 4.1913 13.7631 4.21702C13.7525 4.24274 13.7369 4.26611 13.7172 4.2858C13.6975 4.30548 13.6741 4.3211 13.6484 4.33175C13.6227 4.3424 13.5951 4.34789 13.5673 4.34789H12.0753C11.9162 4.34789 11.7635 4.4111 11.651 4.52362C11.5385 4.63615 11.4753 4.78876 11.4753 4.94789C11.4753 5.10702 11.5385 5.25963 11.651 5.37215C11.7635 5.48467 11.9162 5.54789 12.0753 5.54789H12.7753C12.8315 5.54789 12.8854 5.57022 12.9252 5.60998C12.9649 5.64974 12.9873 5.70366 12.9873 5.75989C12.9873 5.81611 12.9649 5.87004 12.9252 5.9098C12.8854 5.94955 12.8315 5.97189 12.7753 5.97189V5.97289Z" fill="#204F38"/>
<path d="M12.755 7.59387H11.255C11.1987 7.59387 11.1448 7.57154 11.1051 7.53178C11.0653 7.49202 11.043 7.4381 11.043 7.38187C11.043 7.32565 11.0653 7.27172 11.1051 7.23196C11.1448 7.19221 11.1987 7.16987 11.255 7.16987H12.755C12.9141 7.16987 13.0667 7.10666 13.1792 6.99414C13.2918 6.88161 13.355 6.729 13.355 6.56987C13.355 6.41074 13.2918 6.25813 13.1792 6.14561C13.0667 6.03309 12.9141 5.96987 12.755 5.96987H12.292C12.2357 5.96987 12.1818 5.94754 12.1421 5.90778C12.1023 5.86802 12.08 5.8141 12.08 5.75787C12.08 5.70165 12.1023 5.64772 12.1421 5.60797C12.1818 5.56821 12.2357 5.54587 12.292 5.54587H12.755C13.026 5.54587 13.286 5.65355 13.4776 5.84521C13.6693 6.03687 13.777 6.29682 13.777 6.56787C13.777 6.83892 13.6693 7.09887 13.4776 7.29054C13.286 7.4822 13.026 7.58987 12.755 7.58987V7.59387ZM12.411 2.60087C12.2854 2.60087 12.1626 2.56363 12.0582 2.49385C11.9538 2.42408 11.8724 2.32491 11.8243 2.20888C11.7762 2.09284 11.7637 1.96517 11.7882 1.84199C11.8127 1.71881 11.8731 1.60566 11.962 1.51686C12.0508 1.42805 12.1639 1.36757 12.2871 1.34307C12.4103 1.31857 12.5379 1.33115 12.654 1.37921C12.77 1.42727 12.8692 1.50866 12.939 1.61308C13.0087 1.71751 13.046 1.84028 13.046 1.96587C13.0457 2.1342 12.9787 2.29556 12.8597 2.41459C12.7407 2.53362 12.5793 2.60061 12.411 2.60087ZM12.411 1.75387C12.369 1.75387 12.3281 1.7663 12.2932 1.7896C12.2583 1.81289 12.2312 1.84601 12.2151 1.88474C12.1991 1.92348 12.1949 1.96611 12.203 2.00723C12.2112 2.04836 12.2314 2.08613 12.2611 2.11578C12.2907 2.14543 12.3285 2.16562 12.3696 2.1738C12.4107 2.18198 12.4534 2.17778 12.4921 2.16173C12.5308 2.14569 12.5639 2.11852 12.5872 2.08365C12.6105 2.04879 12.623 2.0078 12.623 1.96587C12.6219 1.91034 12.5991 1.85744 12.5595 1.81854C12.5198 1.77965 12.4665 1.75786 12.411 1.75787V1.75387Z" fill="#204F38"/>
<path d="M8.81845 6.8369C8.93553 6.8369 9.03045 6.74199 9.03045 6.6249C9.03045 6.50782 8.93553 6.4129 8.81845 6.4129C8.70136 6.4129 8.60645 6.50782 8.60645 6.6249C8.60645 6.74199 8.70136 6.8369 8.81845 6.8369Z" fill="#204F38"/>
<path d="M16.0196 6.8369C16.1367 6.8369 16.2316 6.74199 16.2316 6.6249C16.2316 6.50782 16.1367 6.4129 16.0196 6.4129C15.9025 6.4129 15.8076 6.50782 15.8076 6.6249C15.8076 6.74199 15.9025 6.8369 16.0196 6.8369Z" fill="#204F38"/>
<path d="M8.81845 5.98992C8.93553 5.98992 9.03045 5.895 9.03045 5.77792C9.03045 5.66083 8.93553 5.56592 8.81845 5.56592C8.70136 5.56592 8.60645 5.66083 8.60645 5.77792C8.60645 5.895 8.70136 5.98992 8.81845 5.98992Z" fill="#204F38"/>
<path d="M8.81845 5.14287C8.93553 5.14287 9.03045 5.04796 9.03045 4.93087C9.03045 4.81379 8.93553 4.71887 8.81845 4.71887C8.70136 4.71887 8.60645 4.81379 8.60645 4.93087C8.60645 5.04796 8.70136 5.14287 8.81845 5.14287Z" fill="#204F38"/>
<path d="M16.0196 5.98992C16.1367 5.98992 16.2316 5.895 16.2316 5.77792C16.2316 5.66083 16.1367 5.56592 16.0196 5.56592C15.9025 5.56592 15.8076 5.66083 15.8076 5.77792C15.8076 5.895 15.9025 5.98992 16.0196 5.98992Z" fill="#204F38"/>
<path d="M16.0196 5.14287C16.1367 5.14287 16.2316 5.04796 16.2316 4.93087C16.2316 4.81379 16.1367 4.71887 16.0196 4.71887C15.9025 4.71887 15.8076 4.81379 15.8076 4.93087C15.8076 5.04796 15.9025 5.14287 16.0196 5.14287Z" fill="#204F38"/>
<path d="M9.8836 3.47548C9.98506 3.41705 10.0199 3.28743 9.96151 3.18597C9.90307 3.08451 9.77345 3.04963 9.67199 3.10806C9.57053 3.1665 9.53565 3.29612 9.59409 3.39758C9.65252 3.49904 9.78214 3.53392 9.8836 3.47548Z" fill="#204F38"/>
<path d="M10.618 3.05251C10.7194 2.99408 10.7543 2.86446 10.6959 2.76299C10.6374 2.66153 10.5078 2.62665 10.4064 2.68509C10.3049 2.74352 10.27 2.87314 10.3285 2.9746C10.3869 3.07606 10.5165 3.11094 10.618 3.05251Z" fill="#204F38"/>
<path d="M11.3524 2.62954C11.4538 2.5711 11.4887 2.44148 11.4303 2.34002C11.3718 2.23856 11.2422 2.20368 11.1407 2.26212C11.0393 2.32055 11.0044 2.45017 11.0628 2.55163C11.1213 2.65309 11.2509 2.68797 11.3524 2.62954Z" fill="#204F38"/>
<path d="M15.231 3.3968C15.2895 3.29533 15.2546 3.16571 15.1531 3.10728C15.0517 3.04885 14.9221 3.08373 14.8636 3.18519C14.8052 3.28665 14.8401 3.41627 14.9415 3.4747C15.043 3.53314 15.1726 3.49826 15.231 3.3968Z" fill="#204F38"/>
<path d="M14.4967 2.97382C14.5551 2.87236 14.5202 2.74274 14.4188 2.68431C14.3173 2.62587 14.1877 2.66075 14.1292 2.76221C14.0708 2.86367 14.1057 2.99329 14.2071 3.05173C14.3086 3.11016 14.4382 3.07528 14.4967 2.97382Z" fill="#204F38"/>
<path d="M13.7633 2.55079C13.8217 2.44933 13.7868 2.31971 13.6854 2.26127C13.5839 2.20284 13.4543 2.23772 13.3958 2.33918C13.3374 2.44064 13.3723 2.57026 13.4737 2.62869C13.5752 2.68713 13.7048 2.65225 13.7633 2.55079Z" fill="#204F38"/>
</svg>
